<svg xmlns:xlink="http://www.w3.org/1999/xlink" width="657" xmlns="http://www.w3.org/2000/svg" height="659" id="screenshot-ad858a66-6ece-805a-8002-067a4f284127" viewBox="0 0 657 659" style="-webkit-print-color-adjust: exact;" fill="none" version="1.1"><g id="shape-ad858a66-6ece-805a-8002-067a4f284127" rx="0" ry="0" style="opacity: 0.25;"><g id="shape-ad858a66-6ece-805a-8002-067a4cc96052" rx="0" ry="0"><g id="shape-ad858a66-6ece-805a-8002-0678c9e0036a"><g class="fills" id="fills-ad858a66-6ece-805a-8002-0678c9e0036a"><rect rx="5" ry="5" x="1.8149171270718512" y="341.63947368421054" transform="matrix(1.000000, 0.000000, 0.000000, 1.000000, 0.000000, 0.000000)" width="90.74585635359114" height="86.71052631578948" style="fill: rgb(78, 99, 162); fill-opacity: 1;"/></g></g></g><g id="shape-ad858a66-6ece-805a-8002-0678bae64785"><g class="fills" id="fills-ad858a66-6ece-805a-8002-0678bae64785"><rect rx="5" ry="5" x="225.04972375690613" y="112.72368421052647" transform="matrix(1.000000, 0.000000, 0.000000, 1.000000, 0.000000, 0.000000)" width="90.74585635359114" height="86.71052631578942" style="fill: rgb(126, 145, 202); fill-opacity: 1;"/></g></g><g id="shape-ad858a66-6ece-805a-8002-0678b469877d"><g class="fills" id="fills-ad858a66-6ece-805a-8002-0678b469877d"><rect rx="5" ry="5" x="0" y="0" transform="matrix(1.000000, 0.000000, 0.000000, 1.000000, 0.000000, 0.000000)" width="90.74585635359117" height="86.71052631578954" style="fill: rgb(126, 145, 202); fill-opacity: 1;"/></g></g><g id="shape-ad858a66-6ece-805a-8002-0678a95ab518"><g class="fills" id="fills-ad858a66-6ece-805a-8002-0678a95ab518"><rect rx="5" ry="5" x="225.04972375690613" y="228.9157894736843" transform="matrix(1.000000, 0.000000, 0.000000, 1.000000, 0.000000, 0.000000)" width="90.74585635359114" height="86.71052631578948" style="fill: rgb(94, 113, 171); fill-opacity: 1;"/></g></g><g id="shape-ad858a66-6ece-805a-8002-0678a3823dc5"><g class="fills" id="fills-ad858a66-6ece-805a-8002-0678a3823dc5"><rect rx="5" ry="5" x="566.2541436464089" y="345.1078947368421" transform="matrix(1.000000, 0.000000, 0.000000, 1.000000, 0.000000, 0.000000)" width="90.74585635359108" height="86.7105263157896" style="fill: rgb(78, 99, 162); fill-opacity: 1;"/></g></g><g id="shape-ad858a66-6ece-805a-8002-067897364bcc"><g class="fills" id="fills-ad858a66-6ece-805a-8002-067897364bcc"><rect rx="5" ry="5" x="564.439226519337" y="456.0973684210526" transform="matrix(1.000000, 0.000000, 0.000000, 1.000000, 0.000000, 0.000000)" width="90.7458563535912" height="86.71052631578948" style="fill: rgb(53, 75, 140); fill-opacity: 1;"/></g></g><g id="shape-ad858a66-6ece-805a-8002-067893dee43f"><g class="fills" id="fills-ad858a66-6ece-805a-8002-067893dee43f"><rect rx="5" ry="5" x="564.439226519337" y="572.2894736842109" transform="matrix(1.000000, 0.000000, 0.000000, 1.000000, 0.000000, 0.000000)" width="90.7458563535912" height="86.71052631578925" style="fill: rgb(19, 40, 103); fill-opacity: 1;"/></g></g><g id="shape-ad858a66-6ece-805a-8002-06788f978c01"><g class="fills" id="fills-ad858a66-6ece-805a-8002-06788f978c01"><rect rx="5" ry="5" x="453.7292817679558" y="572.2894736842109" transform="matrix(1.000000, 0.000000, 0.000000, 1.000000, 0.000000, 0.000000)" width="90.74585635359114" height="86.71052631578925" style="fill: rgb(19, 40, 103); fill-opacity: 1;"/></g></g><g id="shape-ad858a66-6ece-805a-8002-06788c8c4f2b"><g class="fills" id="fills-ad858a66-6ece-805a-8002-06788c8c4f2b"><rect rx="5" ry="5" x="335.7596685082873" y="456.0973684210526" transform="matrix(1.000000, 0.000000, 0.000000, 1.000000, 0.000000, 0.000000)" width="90.7458563535912" height="86.71052631578948" style="fill: rgb(53, 75, 140); fill-opacity: 1;"/></g></g><g id="shape-ad858a66-6ece-805a-8002-0678813b8b25"><g class="fills" id="fills-ad858a66-6ece-805a-8002-0678813b8b25"><rect rx="5" ry="5" x="337.57458563535914" y="572.2894736842109" transform="matrix(1.000000, 0.000000, 0.000000, 1.000000, 0.000000, 0.000000)" width="90.74585635359114" height="86.71052631578925" style="fill: rgb(19, 40, 103); fill-opacity: 1;"/></g></g><g id="shape-ad858a66-6ece-805a-8002-06787dc7dd14"><g class="fills" id="fills-ad858a66-6ece-805a-8002-06787dc7dd14"><rect rx="5" ry="5" x="110.70994475138122" y="228.9157894736843" transform="matrix(1.000000, 0.000000, 0.000000, 1.000000, 0.000000, 0.000000)" width="90.7458563535912" height="86.71052631578948" style="fill: rgb(94, 113, 171); fill-opacity: 1;"/></g></g><g id="shape-ad858a66-6ece-805a-8002-067876bab913"><g class="fills" id="fills-ad858a66-6ece-805a-8002-067876bab913"><rect rx="5" ry="5" x="0" y="112.72368421052647" transform="matrix(1.000000, 0.000000, 0.000000, 1.000000, 0.000000, 0.000000)" width="90.74585635359117" height="86.71052631578942" style="fill: rgb(126, 145, 202); fill-opacity: 1;"/></g></g><g id="shape-ad858a66-6ece-805a-8002-067873553e34"><g class="fills" id="fills-ad858a66-6ece-805a-8002-067873553e34"><rect rx="5" ry="5" x="226.86464088397793" y="572.2894736842109" transform="matrix(1.000000, 0.000000, 0.000000, 1.000000, 0.000000, 0.000000)" width="90.74585635359114" height="86.71052631578925" style="fill: rgb(19, 40, 103); fill-opacity: 1;"/></g></g><g id="shape-ad858a66-6ece-805a-8002-0678698fff3f"><g class="fills" id="fills-ad858a66-6ece-805a-8002-0678698fff3f"><rect rx="5" ry="5" x="0" y="228.9157894736843" transform="matrix(1.000000, 0.000000, 0.000000, 1.000000, 0.000000, 0.000000)" width="90.74585635359117" height="86.71052631578948" style="fill: rgb(94, 113, 171); fill-opacity: 1;"/></g></g><g id="shape-ad858a66-6ece-805a-8002-0678698fff40"><g class="fills" id="fills-ad858a66-6ece-805a-8002-0678698fff40"><rect rx="5" ry="5" x="110.70994475138122" y="345.1078947368421" transform="matrix(1.000000, 0.000000, 0.000000, 1.000000, 0.000000, 0.000000)" width="90.7458563535912" height="86.7105263157896" style="fill: rgb(78, 99, 162); fill-opacity: 1;"/></g></g><g id="shape-ad858a66-6ece-805a-8002-067863716f86"><g class="fills" id="fills-ad858a66-6ece-805a-8002-067863716f86"><rect rx="5" ry="5" x="110.70994475138122" y="456.0973684210526" transform="matrix(1.000000, 0.000000, 0.000000, 1.000000, 0.000000, 0.000000)" width="90.7458563535912" height="86.71052631578948" style="fill: rgb(53, 75, 140); fill-opacity: 1;"/></g></g><g id="shape-ad858a66-6ece-805a-8002-067863716f87"><g class="fills" id="fills-ad858a66-6ece-805a-8002-067863716f87"><rect rx="5" ry="5" x="0" y="456.0973684210526" transform="matrix(1.000000, 0.000000, 0.000000, 1.000000, 0.000000, 0.000000)" width="90.74585635359117" height="86.71052631578948" style="fill: rgb(53, 75, 140); fill-opacity: 1;"/></g></g><g id="shape-ad858a66-6ece-805a-8002-06785eb735a0"><g class="fills" id="fills-ad858a66-6ece-805a-8002-06785eb735a0"><rect rx="5" ry="5" x="110.70994475138122" y="572.2894736842109" transform="matrix(1.000000, 0.000000, 0.000000, 1.000000, 0.000000, 0.000000)" width="90.7458563535912" height="86.71052631578925" style="fill: rgb(19, 40, 103); fill-opacity: 1;"/></g></g><g id="shape-ad858a66-6ece-805a-8002-06783b5aaea1"><g class="fills" id="fills-ad858a66-6ece-805a-8002-06783b5aaea1"><rect rx="5" ry="5" x="0" y="572.2894736842109" transform="matrix(1.000000, 0.000000, 0.000000, 1.000000, 0.000000, 0.000000)" width="90.74585635359117" height="86.71052631578925" style="fill: rgb(19, 40, 103); fill-opacity: 1;"/></g></g></g></svg>