<svg xmlns:xlink="http://www.w3.org/1999/xlink" width="451.425" xmlns="http://www.w3.org/2000/svg" height="312.628" id="screenshot-d3b500d7-c4f5-80f6-8002-087d5435952e" viewBox="-37 0 451.425 312.628" style="-webkit-print-color-adjust: exact;" fill="none" version="1.1"><g id="shape-d3b500d7-c4f5-80f6-8002-087d5435952e" rx="0" ry="0"><g id="shape-ccec4678-1485-80dc-8002-08735f19ad16"><g class="fills" id="fills-ccec4678-1485-80dc-8002-08735f19ad16"><path d="M195.00000000000003,-131 h0 a0,0 0 0 1 0,0 v271 a0,0 0 0 1 0,0 h0 a9,9 0 0 1 -9,-9 v-253 a9,9 0 0 1 9,-9 z" x="186.00000000000003" y="-131" transform="matrix(0.000000, 1.000000, -1.000000, -0.000000, 195.000000, -186.000000)" width="9" height="271" style="fill: rgb(86, 86, 86); fill-opacity: 1;"/></g></g><g id="shape-ccec4678-1485-80dc-8002-087342f86235"><g class="fills" id="fills-ccec4678-1485-80dc-8002-087342f86235"><rect rx="0" ry="0" x="317" y="9" transform="matrix(1.000000, 0.000000, 0.000000, 1.000000, 0.000000, 0.000000)" width="9" height="176" style="fill: rgb(86, 86, 86); fill-opacity: 1;"/></g></g><g id="shape-ccec4678-1485-80dc-8002-0873b6dfcf11"><g class="fills" id="fills-ccec4678-1485-80dc-8002-0873b6dfcf11"><path d="M195.00000000000026,54 h0 a0,0 0 0 1 0,0 v270.9999999999998 a0,0 0 0 1 0,0 h0 a9,9 0 0 1 -9,-9 v-252.99999999999977 a9,9 0 0 1 9,-9 z" x="186.00000000000026" y="54" transform="matrix(-0.000000, -1.000000, 1.000000, 0.000000, 1.000000, 380.000000)" width="9" height="270.9999999999998" style="fill: rgb(86, 86, 86); fill-opacity: 1;"/></g></g><g id="shape-ccec4678-1485-80dc-8002-0872ce49065f"><defs><radialGradient id="fill-color-gradient_rumext-id-5_0" cx="0.5" cy="0.5" r="0.9190684657090671" gradientTransform="matrix(-0.999998, -0.002020, 0.002020, -0.999998, 0.998989, 1.001009)"><stop offset="0" stop-color="#434343" stop-opacity="1"/><stop offset="1" stop-color="#1d1d1d" stop-opacity="1"/></radialGradient><pattern patternUnits="userSpaceOnUse" x="64" y="9" height="176" width="253" data-loading="false" id="fill-0-rumext-id-5"><g><rect width="253" height="176" style="fill: url(&quot;#fill-color-gradient_rumext-id-5_0&quot;);"/></g></pattern></defs><g class="fills" id="fills-ccec4678-1485-80dc-8002-0872ce49065f"><path d="M64,9 h253 a0,0 0 0 1 0,0 v176 a0,0 0 0 1 0,0 h-253 a0,0 0 0 1 0,0 v-176 a0,0 0 0 1 0,0 z" x="64" y="9" transform="matrix(1.000000, 0.000000, 0.000000, 1.000000, 0.000000, 0.000000)" width="253" height="176" fill="url(#fill-0-rumext-id-5)"/></g></g><g id="shape-1f7d1987-7276-8070-8002-0879a60ab142"><g class="fills" id="fills-1f7d1987-7276-8070-8002-0879a60ab142"><rect rx="2.5" ry="2.5" x="165.00000000000003" y="81" transform="matrix(1.000000, 0.000000, 0.000000, 1.000000, 0.000000, 0.000000)" width="23" height="5" style="fill: rgb(180, 97, 28); fill-opacity: 1;"/></g></g><g id="shape-1f7d1987-7276-8070-8002-087995869c96"><g class="fills" id="fills-1f7d1987-7276-8070-8002-087995869c96"><rect rx="2.5" ry="2.5" x="165.00000000000003" y="113" transform="matrix(1.000000, 0.000000, 0.000000, 1.000000, 0.000000, 0.000000)" width="12" height="5" style="fill: rgb(180, 97, 28); fill-opacity: 1;"/></g></g><g id="shape-1f7d1987-7276-8070-8002-08795ee9f853"><g class="fills" id="fills-1f7d1987-7276-8070-8002-08795ee9f853"><rect rx="2.5" ry="2.5" x="97" y="113" transform="matrix(1.000000, 0.000000, 0.000000, 1.000000, 0.000000, 0.000000)" width="61.00000000000003" height="5" style="fill: rgb(36, 190, 184); fill-opacity: 1;"/></g></g><g id="shape-1f7d1987-7276-8070-8002-087966e93cb6"><g class="fills" id="fills-1f7d1987-7276-8070-8002-087966e93cb6"><rect rx="2.5" ry="2.5" x="109.00000000000003" y="125" transform="matrix(1.000000, 0.000000, 0.000000, 1.000000, 0.000000, 0.000000)" width="61" height="5" style="fill: rgb(36, 190, 184); fill-opacity: 1;"/></g></g><g id="shape-1f7d1987-7276-8070-8002-08798101fa39"><g class="fills" id="fills-1f7d1987-7276-8070-8002-08798101fa39"><rect rx="2.5" ry="2.5" x="177.00000000000003" y="125" transform="matrix(1.000000, 0.000000, 0.000000, 1.000000, 0.000000, 0.000000)" width="18" height="5" style="fill: rgb(180, 97, 28); fill-opacity: 1;"/></g></g><g id="shape-1f7d1987-7276-8070-8002-087944c4259b"><g class="fills" id="fills-1f7d1987-7276-8070-8002-087944c4259b"><rect rx="2.5" ry="2.5" x="80" y="101" transform="matrix(1.000000, 0.000000, 0.000000, 1.000000, 0.000000, 0.000000)" width="78.00000000000003" height="5" style="fill: rgb(242, 236, 23); fill-opacity: 1;"/></g></g><g id="shape-1f7d1987-7276-8070-8002-0879361e96e3"><g class="fills" id="fills-1f7d1987-7276-8070-8002-0879361e96e3"><rect rx="2.5" ry="2.5" x="97" y="81" transform="matrix(1.000000, 0.000000, 0.000000, 1.000000, 0.000000, 0.000000)" width="61.00000000000003" height="5" style="fill: rgb(36, 190, 184); fill-opacity: 1;"/></g></g><g id="shape-1f7d1987-7276-8070-8002-087918285441"><g class="fills" id="fills-1f7d1987-7276-8070-8002-087918285441"><rect rx="2.5" ry="2.5" x="97" y="68" transform="matrix(1.000000, 0.000000, 0.000000, 1.000000, 0.000000, 0.000000)" width="110.00000000000003" height="5" style="fill: rgb(36, 190, 184); fill-opacity: 1;"/></g></g><g id="shape-1f7d1987-7276-8070-8002-08790e4add6f"><g class="fills" id="fills-1f7d1987-7276-8070-8002-08790e4add6f"><rect rx="2.5" ry="2.5" x="97" y="55" transform="matrix(1.000000, 0.000000, 0.000000, 1.000000, 0.000000, 0.000000)" width="91.00000000000003" height="5" style="fill: rgb(36, 190, 184); fill-opacity: 1;"/></g></g><g id="shape-1f7d1987-7276-8070-8002-0878f8b22c2f"><g class="fills" id="fills-1f7d1987-7276-8070-8002-0878f8b22c2f"><rect rx="2.5" ry="2.5" x="97" y="42" transform="matrix(1.000000, 0.000000, 0.000000, 1.000000, 0.000000, 0.000000)" width="110.00000000000003" height="5" style="fill: rgb(36, 190, 184); fill-opacity: 1;"/></g></g><g id="shape-ccec4678-1485-80dc-8002-08733122e7b6"><g class="fills" id="fills-ccec4678-1485-80dc-8002-08733122e7b6"><rect rx="0" ry="0" x="55" y="9" transform="matrix(1.000000, 0.000000, 0.000000, 1.000000, 0.000000, 0.000000)" width="9" height="176" style="fill: rgb(86, 86, 86); fill-opacity: 1;"/></g></g><g id="shape-ccec4678-1485-80dc-8002-0873d581ccf3"><g class="fills" id="fills-ccec4678-1485-80dc-8002-0873d581ccf3"><ellipse rx="2.5" ry="2.5" cx="190.50000000000003" cy="4.5" transform="matrix(1.000000, 0.000000, 0.000000, 1.000000, 0.000000, 0.000000)" style="fill: rgb(0, 0, 0); fill-opacity: 1;"/></g></g><g id="shape-ccec4678-1485-80dc-8002-087449896ed3"><defs><linearGradient id="fill-color-gradient_rumext-id-18_0" x1="0.5" y1="0" x2="0.5" y2="1" gradientTransform="matrix(1.000000, 0.000000, 0.000000, 1.000000, 0.000000, 0.000000)"><stop offset="0" stop-color="#a9a9a9" stop-opacity="1"/><stop offset="1" stop-color="#e1e1e1" stop-opacity="1"/></linearGradient><pattern patternUnits="userSpaceOnUse" x="3" y="194" height="47.93443354839792" width="370.9297106279762" data-loading="false" patternTransform="matrix(1.000000, 0.000000, 0.000000, 1.000000, 0.000000, 0.000000)" id="fill-0-rumext-id-18"><g><rect width="370.9297106279762" height="47.93443354839792" style="fill: url(&quot;#fill-color-gradient_rumext-id-18_0&quot;);"/></g></pattern></defs><g class="fills" id="fills-ccec4678-1485-80dc-8002-087449896ed3"><path rx="0" ry="0" d="M63.067,194.000L3.000,241.934L373.930,241.748L319.350,194.000L63.067,194.000ZM373.930,241.748" fill="url(#fill-0-rumext-id-18)"/></g><g id="strokes-ccec4678-1485-80dc-8002-087449896ed3" class="strokes"><g class="stroke-shape"><path rx="0" ry="0" d="M63.067,194.000L3.000,241.934L373.930,241.748L319.350,194.000L63.067,194.000ZM373.930,241.748" style="fill: none; stroke-width: 3; stroke: rgb(192, 192, 192); stroke-opacity: 1;"/></g></g></g><g id="shape-ccec4678-1485-80dc-8002-0874aac7e1cd"><defs><filter id="filter_rumext-id-19" x="-0.07528430647767712" y="-3.925862842632894" width="1.1505686129553543" height="10.924207561641719" filterUnits="objectBoundingBox" color-interpolation-filters="sRGB"><feFlood flood-opacity="0" result="BackgroundImageFix"/><feColorMatrix in="SourceAlpha" type="matrix" values="0 0 0 0 0 0 0 0 0 0 0 0 0 0 0 0 0 0 127 0"/><feOffset dx="0" dy="5"/><feGaussianBlur stdDeviation="2"/><feColorMatrix type="matrix" values="0 0 0 0 0 0 0 0 0 0 0 0 0 0 0 0 0 0 0.5 0"/><feBlend mode="normal" in2="BackgroundImageFix" result="filter_1f7d1987-7276-8070-8002-087a5a902c3a"/><feBlend mode="normal" in="SourceGraphic" in2="filter_1f7d1987-7276-8070-8002-087a5a902c3a" result="shape"/></filter><filter id="filter_shadow_rumext-id-19" x="-0.07528430647767712" y="-3.925862842632894" width="1.1505686129553543" height="10.924207561641719" filterUnits="objectBoundingBox" color-interpolation-filters="sRGB"><feFlood flood-opacity="0" result="BackgroundImageFix"/><feColorMatrix in="SourceAlpha" type="matrix" values="0 0 0 0 0 0 0 0 0 0 0 0 0 0 0 0 0 0 127 0"/><feOffset dx="0" dy="5"/><feGaussianBlur stdDeviation="2"/><feColorMatrix type="matrix" values="0 0 0 0 0 0 0 0 0 0 0 0 0 0 0 0 0 0 0.5 0"/><feBlend mode="normal" in2="BackgroundImageFix" result="filter_1f7d1987-7276-8070-8002-087a5a902c3a"/><feBlend mode="normal" in="SourceGraphic" in2="filter_1f7d1987-7276-8070-8002-087a5a902c3a" result="shape"/></filter></defs><g class="fills" id="fills-ccec4678-1485-80dc-8002-0874aac7e1cd"><path rx="0" ry="0" d="M0.000,244.000C0.000,251.235,6.940,250.614,6.940,250.614L368.766,250.612C368.766,250.612,380.130,250.474,376.821,243.737C376.373,242.824,0.000,244.000,0.000,244.000Z" filter="url(#filter_rumext-id-19)" style="fill: rgb(177, 178, 181); fill-opacity: 1;"/></g><g id="strokes-ccec4678-1485-80dc-8002-0874aac7e1cd" class="strokes"><g class="stroke-shape"><path rx="0" ry="0" d="M0.000,244.000C0.000,251.235,6.940,250.614,6.940,250.614L368.766,250.612C368.766,250.612,380.130,250.474,376.821,243.737C376.373,242.824,0.000,244.000,0.000,244.000Z" style="fill: none; stroke-width: 2; stroke: rgb(180, 181, 177); stroke-opacity: 1;"/></g></g></g><g id="shape-7d4a0cdf-77e7-8018-8002-0876d3cb06f3"><g class="fills" id="fills-7d4a0cdf-77e7-8018-8002-0876d3cb06f3"><path rx="0" ry="0" d="M135.000,235.000L153.000,219.000L226.000,219.000L242.000,235.000L135.000,235.000Z" style="fill: rgb(216, 216, 216); fill-opacity: 1;"/></g><g id="strokes-7d4a0cdf-77e7-8018-8002-0876d3cb06f3" class="strokes"><g class="stroke-shape"><path rx="0" ry="0" d="M135.000,235.000L153.000,219.000L226.000,219.000L242.000,235.000L135.000,235.000Z" style="fill: none; stroke-width: 2; stroke: rgb(180, 181, 177); stroke-opacity: 1;"/></g></g></g><g id="shape-7d4a0cdf-77e7-8018-8002-08770939310b"><g class="fills" id="fills-7d4a0cdf-77e7-8018-8002-08770939310b"><path rx="0" ry="0" d="M67.000,210.440L82.518,199.183L299.987,199.000L305.846,203.859L314.000,210.440L67.000,210.440Z" style="fill: rgb(100, 100, 100); fill-opacity: 1;"/></g><g id="strokes-7d4a0cdf-77e7-8018-8002-08770939310b" class="strokes"><g class="stroke-shape"><path rx="0" ry="0" d="M67.000,210.440L82.518,199.183L299.987,199.000L305.846,203.859L314.000,210.440L67.000,210.440Z" style="fill: none; stroke-width: 1; stroke: rgb(0, 0, 0); stroke-opacity: 0.25;"/></g></g></g><g id="shape-1f7d1987-7276-8070-8002-0879cd0bc73d"><g class="fills" id="fills-1f7d1987-7276-8070-8002-0879cd0bc73d"><rect rx="2.5" ry="2.5" x="96" y="158" transform="matrix(1.000000, 0.000000, 0.000000, 1.000000, 0.000000, 0.000000)" width="61.00000000000003" height="5" style="fill: rgb(36, 190, 184); fill-opacity: 1;"/></g></g><g id="shape-1f7d1987-7276-8070-8002-0878d548f550"><g class="fills" id="fills-1f7d1987-7276-8070-8002-0878d548f550"><rect rx="2.5" ry="2.5" x="80" y="29" transform="matrix(1.000000, 0.000000, 0.000000, 1.000000, 0.000000, 0.000000)" width="110.00000000000003" height="5" style="fill: rgb(242, 236, 23); fill-opacity: 1;"/></g></g><g id="shape-1f7d1987-7276-8070-8002-0879cd0bc73f"><g class="fills" id="fills-1f7d1987-7276-8070-8002-0879cd0bc73f"><rect rx="2.5" ry="2.5" x="80" y="145" transform="matrix(1.000000, 0.000000, 0.000000, 1.000000, 0.000000, 0.000000)" width="53.00000000000003" height="5" style="fill: rgb(215, 23, 242); fill-opacity: 1;"/></g></g></g></svg>